<?xml version="1.0" encoding="UTF-8"?>
<svg id="Layer_1" xmlns="http://www.w3.org/2000/svg" xmlns:xlink="http://www.w3.org/1999/xlink" viewBox="0 0 32 32">
  <defs>
    <style>
      .cls-1 {
        fill: none;
      }

      .cls-2 {
        fill: #7d8499;
      }

      .cls-2, .cls-3 {
        fill-rule: evenodd;
      }

      .cls-3 {
        fill: #d8cacd;
      }

      .cls-4 {
        clip-path: url(#clippath);
      }
    </style>
    <clipPath id="clippath">
      <rect class="cls-1" width="32" height="32"/>
    </clipPath>
  </defs>
  <g class="cls-4">
    <g>
      <path class="cls-3" d="M0,0h32v32H0V0Z"/>
      <path class="cls-3" d="M0,0h32v32H0V0Z"/>
      <path class="cls-3" d="M0,0h32v32H0V0Z"/>
      <path class="cls-3" d="M0,0h32v32H0V0Z"/>
      <path class="cls-3" d="M0,0h32v32H0V0Z"/>
      <path class="cls-3" d="M0,0h32v32H0V0Z"/>
      <path class="cls-3" d="M0,0h32v32H0V0Z"/>
    </g>
  </g>
  <g>
    <path class="cls-2" d="M6.91,2.76h.05v1.47c0,1.07.87,1.94,1.94,1.94s1.94-.87,1.94-1.94v-1.47h10.35v1.47c0,1.07.87,1.94,1.94,1.94s1.94-.87,1.94-1.94v-1.47h.04c1.14,0,2.07.94,2.07,2.08v25.09c0,1.14-.93,2.07-2.07,2.07H6.91c-1.14,0-2.07-.93-2.07-2.07V4.84c0-1.14.93-2.08,2.07-2.08ZM13.18,4.58c-.17,0-.3.15-.3.31,0,.18.13.31.3.31h5.64c.18,0,.31-.13.31-.31,0-.17-.13-.31-.31-.31h-5.64ZM8.47,8.15c-.17,0-.31.15-.31.31s.15.31.31.31h15.07c.17,0,.31-.15.31-.31s-.15-.31-.31-.31h-15.07ZM8.47,11.72c-.17,0-.31.13-.31.31,0,.17.15.3.31.3h15.07c.17,0,.31-.13.31-.3,0-.18-.15-.31-.31-.31h-15.07ZM8.47,15.28c-.17,0-.31.15-.31.33,0,.17.15.3.31.3h15.07c.17,0,.31-.13.31-.3,0-.18-.15-.33-.31-.33h-15.07ZM8.47,18.85c-.17,0-.31.15-.31.31s.15.31.31.31h15.07c.17,0,.31-.15.31-.31s-.15-.31-.31-.31h-15.07ZM8.47,22.42c-.17,0-.31.13-.31.31,0,.17.15.31.31.31h15.07c.17,0,.31-.15.31-.31,0-.18-.15-.31-.31-.31h-15.07ZM8.47,25.99c-.17,0-.31.13-.31.3,0,.18.15.31.31.31h15.07c.17,0,.31-.13.31-.31,0-.17-.15-.3-.31-.3h-15.07ZM8.47,29.55c-.17,0-.31.15-.31.31s.15.31.31.31h15.07c.17,0,.31-.15.31-.31s-.15-.31-.31-.31h-15.07Z"/>
    <path class="cls-2" d="M8.89,0c.36,0,.67.13.92.39.25.25.39.56.39.92v2.91c0,.36-.13.68-.39.93-.25.25-.56.38-.92.38s-.68-.12-.93-.38c-.25-.25-.38-.57-.38-.93V1.31c0-.36.12-.67.38-.92.25-.25.57-.39.93-.39Z"/>
    <path class="cls-2" d="M23.12,0c.36,0,.67.13.92.39.27.25.39.56.39.92v2.91c0,.36-.12.68-.39.93-.25.25-.56.38-.92.38s-.67-.12-.92-.38c-.25-.25-.39-.57-.39-.93V1.31c0-.36.13-.67.39-.92.25-.25.56-.39.92-.39Z"/>
  </g>
</svg>